<svg width="158" height="48" viewBox="0 0 158 48" fill="none" xmlns="http://www.w3.org/2000/svg">
<path d="M9.0878 15.76H0.735797V11.8H22.1198V15.76H13.7678V37H9.0878V15.76ZM31.1645 17.56C33.9965 17.56 36.1565 18.244 37.6445 19.612C39.1565 20.956 39.9125 22.996 39.9125 25.732V37H35.6645V34.66C35.1125 35.5 34.3205 36.148 33.2885 36.604C32.2805 37.036 31.0565 37.252 29.6165 37.252C28.1765 37.252 26.9165 37.012 25.8365 36.532C24.7565 36.028 23.9165 35.344 23.3165 34.48C22.7405 33.592 22.4525 32.596 22.4525 31.492C22.4525 29.764 23.0885 28.384 24.3605 27.352C25.6565 26.296 27.6845 25.768 30.4445 25.768H35.4125V25.48C35.4125 24.136 35.0045 23.104 34.1885 22.384C33.3965 21.664 32.2085 21.304 30.6245 21.304C29.5445 21.304 28.4765 21.472 27.4205 21.808C26.3885 22.144 25.5125 22.612 24.7925 23.212L23.0285 19.936C24.0365 19.168 25.2485 18.58 26.6645 18.172C28.0805 17.764 29.5805 17.56 31.1645 17.56ZM30.5525 33.976C31.6805 33.976 32.6765 33.724 33.5405 33.22C34.4285 32.692 35.0525 31.948 35.4125 30.988V28.756H30.7685C28.1765 28.756 26.8805 29.608 26.8805 31.312C26.8805 32.128 27.2045 32.776 27.8525 33.256C28.5005 33.736 29.4005 33.976 30.5525 33.976ZM51.2677 37.252C49.7077 37.252 48.1837 37.048 46.6957 36.64C45.2077 36.232 44.0197 35.716 43.1317 35.092L44.8597 31.672C45.7237 32.248 46.7557 32.716 47.9557 33.076C49.1797 33.412 50.3797 33.58 51.5557 33.58C54.2437 33.58 55.5877 32.872 55.5877 31.456C55.5877 30.784 55.2397 30.316 54.5437 30.052C53.8717 29.788 52.7797 29.536 51.2677 29.296C49.6837 29.056 48.3877 28.78 47.3797 28.468C46.3957 28.156 45.5317 27.616 44.7877 26.848C44.0677 26.056 43.7077 24.964 43.7077 23.572C43.7077 21.748 44.4637 20.296 45.9757 19.216C47.5117 18.112 49.5757 17.56 52.1677 17.56C53.4877 17.56 54.8077 17.716 56.1277 18.028C57.4477 18.316 58.5277 18.712 59.3677 19.216L57.6397 22.636C56.0077 21.676 54.1717 21.196 52.1317 21.196C50.8117 21.196 49.8037 21.4 49.1077 21.808C48.4357 22.192 48.0997 22.708 48.0997 23.356C48.0997 24.076 48.4597 24.592 49.1797 24.904C49.9237 25.192 51.0637 25.468 52.5997 25.732C54.1357 25.972 55.3957 26.248 56.3797 26.56C57.3637 26.872 58.2037 27.4 58.8997 28.144C59.6197 28.888 59.9797 29.944 59.9797 31.312C59.9797 33.112 59.1997 34.552 57.6397 35.632C56.0797 36.712 53.9557 37.252 51.2677 37.252ZM71.343 28.756L67.995 31.924V37H63.495V10.288H67.995V26.416L77.319 17.776H82.719L74.691 25.84L83.475 37H78.003L71.343 28.756ZM96.6778 17.56C98.5498 17.56 100.218 17.968 101.682 18.784C103.17 19.6 104.334 20.752 105.174 22.24C106.014 23.728 106.434 25.444 106.434 27.388C106.434 29.332 106.014 31.06 105.174 32.572C104.334 34.06 103.17 35.212 101.682 36.028C100.218 36.844 98.5498 37.252 96.6778 37.252C95.3578 37.252 94.1458 37.024 93.0418 36.568C91.9618 36.112 91.0498 35.428 90.3058 34.516V37H86.0218V10.288H90.5218V20.116C91.2898 19.276 92.1898 18.64 93.2218 18.208C94.2778 17.776 95.4298 17.56 96.6778 17.56ZM96.1738 33.4C97.8298 33.4 99.1858 32.848 100.242 31.744C101.322 30.64 101.862 29.188 101.862 27.388C101.862 25.588 101.322 24.136 100.242 23.032C99.1858 21.928 97.8298 21.376 96.1738 21.376C95.0938 21.376 94.1218 21.628 93.2578 22.132C92.3938 22.612 91.7098 23.308 91.2058 24.22C90.7018 25.132 90.4498 26.188 90.4498 27.388C90.4498 28.588 90.7018 29.644 91.2058 30.556C91.7098 31.468 92.3938 32.176 93.2578 32.68C94.1218 33.16 95.0938 33.4 96.1738 33.4Z" fill="white"/>
<path d="M134.669 10.288H139.169V37H134.669V10.288ZM157.22 35.956C156.692 36.388 156.044 36.712 155.276 36.928C154.532 37.144 153.74 37.252 152.9 37.252C150.788 37.252 149.156 36.7 148.004 35.596C146.852 34.492 146.276 32.884 146.276 30.772V21.52H143.108V17.92H146.276V13.528H150.776V17.92H155.924V21.52H150.776V30.664C150.776 31.6 151.004 32.32 151.46 32.824C151.916 33.304 152.576 33.544 153.44 33.544C154.448 33.544 155.288 33.28 155.96 32.752L157.22 35.956Z" fill="white"/>
<ellipse cx="120.154" cy="27.2163" rx="9.5625" ry="9.5625" fill="white"/>
<path d="M115.526 28.6226H119.778L118.3 37.0601L124.782 25.8101H120.53L122.006 17.3726L115.526 28.6226Z" fill="#5720DD"/>
</svg>
